<?xml version="1.0" standalone="no"?>
<!DOCTYPE svg PUBLIC "-//W3C//DTD SVG 20010904//EN"
 "http://www.w3.org/TR/2001/REC-SVG-20010904/DTD/svg10.dtd">
<svg version="1.0" xmlns="http://www.w3.org/2000/svg"
 width="1280.000000pt" height="640.000000pt" viewBox="0 0 1280.000000 640.000000"
 preserveAspectRatio="xMidYMid meet">
<g transform="translate(0.000000,640.000000) scale(0.100000,-0.100000)"
fill="#000000" stroke="none">
<path d="M8613 4988 c2 -7 41 -100 86 -207 98 -233 189 -496 230 -663 57 -232
109 -557 94 -594 -4 -12 -599 -14 -4514 -14 l-4509 0 0 -305 0 -305 4509 0
c4103 0 4509 -1 4515 -16 7 -18 -7 -150 -29 -279 -62 -358 -140 -612 -314
-1025 -38 -91 -68 -167 -66 -169 8 -7 2379 1011 3740 1607 425 186 418 183
409 191 -24 21 -3924 1703 -4133 1782 -17 7 -22 6 -18 -3z"/>
</g>
</svg>
